<svg preserveAspectRatio="none" overflow="visible" style="display: block;" width="35" height="42" viewBox="0 0 35 42" fill="none" xmlns="http://www.w3.org/2000/svg">
<path id="Vector" d="M13.8254 2.00666C14.7072 -1.29664 18.3082 0.171009 20.2266 1.5201C22.0338 -0.870099 24.6124 0.256469 26.3562 1.9929C27.6241 0.859868 28.7851 0.280332 30.5204 0.31983C33.9493 0.397885 33.8549 3.35334 32.8812 5.76441C32.7785 6.01874 32.3383 6.86811 32.3209 7.08852C32.9365 6.97773 32.8882 6.85607 33.69 6.88298C34.2096 7.13708 34.5362 7.37494 34.7368 7.99304C35.0611 8.99182 34.7509 10.2324 34.3647 11.1741C34.2739 11.3956 33.857 11.8562 33.8408 12.0717C34.3903 12.3676 34.8222 12.4383 34.9552 13.1964C35.194 14.5579 34.4265 16.2331 33.8715 17.4566C33.8024 17.609 33.6263 17.8399 33.8313 17.9238C35.8128 19.2316 34.715 22.2818 33.8398 23.9346C33.6521 24.2891 33.5157 24.5471 33.271 24.7773C33.7208 25.269 34.1577 25.7334 34.4409 26.3101C35.4479 28.3613 35.0253 30.9623 32.835 32.0327C32.5801 32.1572 32.5288 32.1971 32.2378 32.2648L32.1866 32.3474C32.5753 33.7277 32.9464 35.1672 32.1599 36.5381C31.781 37.2023 31.1501 37.687 30.4088 37.8833C29.6248 38.0856 28.5439 37.9475 27.7668 37.7576C27.6471 38.2087 27.5504 38.6386 27.3371 39.0539C26.2419 41.1869 23.9415 41.5583 22.2479 39.9075C21.564 40.962 20.9503 41.6239 19.6828 41.9051C17.7902 42.3251 16.7194 41.3179 16.3536 39.5362C14.6097 40.8537 11.3084 42.6111 9.55713 40.2745C9.05328 39.6023 8.93239 38.7947 9.06467 37.9753C9.07412 37.9169 9.08421 37.8587 9.09501 37.8006C7.70977 37.842 7.03668 37.7142 5.8503 36.9382C4.38424 35.6385 4.42863 34.1099 5.29391 32.5009C4.35231 32.533 3.80737 32.4295 2.88236 32.1999C-1.15644 30.2774 0.0186058 26.3641 2.35165 23.5716C0.974135 22.8314 0.262624 22.0086 0.100122 20.3883C-0.118573 18.208 1.30286 16.1834 2.91984 14.8115C1.29985 13.2689 0.0861921 11.2798 0.00396743 9.0054C-0.130083 5.2959 3.15878 5.0963 5.92827 5.24242C5.55085 3.93276 5.50239 2.90047 6.16491 1.645C6.44883 1.10708 7.01555 0.583619 7.61715 0.444437C9.59108 -0.0123737 11.8135 0.840002 13.4712 1.79641C13.59 1.86512 13.7081 1.93524 13.8254 2.00666Z" fill="#E8E3D4"/>
</svg>
